<svg xmlns="http://www.w3.org/2000/svg" width="48" height="48" viewBox="0 0 12.7 12.7" id="map">
  <path fill="#23cd3f" d="M12.702 6.351a6.35 6.35 0 0 0-6.35-6.35 6.35 6.35 0 0 0-6.35 6.35 6.35 6.35 0 0 0 6.35 6.35 6.35 6.35 0 0 0 6.35-6.35z"></path>
  <g fill="#fff">
    <path fill-rule="evenodd" d="m6.393 4.362-.018.04a6.407 6.407 0 0 1-.425.724c-.305.458-.609.83-.609.83l-.047.057v.194h2.117V5.032zm3.663-.826-2.38 1.5v1.17h.33a.66.66 0 0 0 .661-.66v-.398h.265v.397c0 .51-.416.926-.926.926h-.33v.206l.541.001a.663.663 0 0 0 .468-.197l.187.188a.928.928 0 0 1-.655.274l-.542-.002v3.176l2.381-1.5zM3.912 4.322l-.164.104-1.1.693V10.2L5.03 8.7V6.47h-.396a.66.66 0 0 0-.662.662v.397h-.265v-.397c0-.51.417-.926.927-.926h.396v-.194l-.047-.057s-.303-.372-.608-.83a6.404 6.404 0 0 1-.425-.724l-.037-.08zM3.574 7.66a.132.132 0 0 1 .095.04l.17.17.17-.17a.132.132 0 0 1 .09-.04.132.132 0 0 1 .096.228l-.17.17.17.17a.132.132 0 1 1-.187.186l-.17-.17-.169.17a.132.132 0 1 1-.187-.187l.17-.17-.17-.17a.132.132 0 0 1 .092-.227zM5.294 6.471v.2l2.117.005v-.205zm0 .464v1.77l2.117 1.407V6.941zm.397.33h.264v.265h-.264zm.529 0h.265v.265H6.22zm.53 0h.264v.265h-.265z"></path>
    <path d="M5.162 2.502a1.19 1.19 0 0 0-1.19 1.19c0 .658 1.19 2.117 1.19 2.117s1.19-1.459 1.19-2.116a1.19 1.19 0 0 0-1.19-1.19zm0 .53a.661.661 0 0 1 .661.66.661.661 0 0 1-.661.662.661.661 0 0 1-.662-.661.661.661 0 0 1 .662-.662z"></path>
  </g>
</svg>
